<svg width="32" height="32" viewBox="0 0 32 32" fill="none" xmlns="http://www.w3.org/2000/svg">
<g clip-path="url(#clip0_251_1994)">
<path fill-rule="evenodd" clip-rule="evenodd" d="M2.84211 11.5C2.84211 12.4156 3.58437 13.1579 4.5 13.1579C5.41563 13.1579 6.15789 12.4156 6.15789 11.5C6.15789 10.5844 5.41563 9.84211 4.5 9.84211C3.58437 9.84211 2.84211 10.5844 2.84211 11.5ZM4.5 15C2.567 15 1 13.433 1 11.5C1 9.567 2.567 8 4.5 8C6.433 8 8 9.567 8 11.5C8 13.433 6.433 15 4.5 15Z" fill="#083452"/>
<path d="M21.7422 7.29687C21.7422 4.35423 19.3567 1.96875 16.4141 1.96875C13.4714 1.96875 11.0859 4.35423 11.0859 7.29688C11.0859 10.2395 13.4714 12.625 16.4141 12.625C19.3567 12.625 21.7422 10.2395 21.7422 7.29687Z" fill="#AEDCFF"/>
<path d="M17.6457 15.031H17.1168C17.1128 15.031 17.1128 15.031 17.1088 15.031H13.8832H13.3543C8.74642 15.031 5 18.8399 5 23.5155V29.5259C5 30.8891 6.09388 32 7.43618 32H23.5638C24.9061 32 26 30.8891 26 29.5259V23.5155C26.004 18.8358 22.2536 15.031 17.6457 15.031ZM15.8867 17.6923L16.8603 22.901L15.502 24.073L14.1437 22.9051L15.1173 17.6964C15.1374 17.5906 15.1294 17.4848 15.0973 17.383L14.7447 16.2884H16.2553L15.9027 17.383C15.8746 17.4807 15.8666 17.5906 15.8867 17.6923ZM24.7659 29.5259C24.7659 30.1973 24.229 30.7426 23.5678 30.7426H19.9897V25.9734C19.9897 25.6275 19.7132 25.3426 19.3686 25.3426C19.024 25.3426 18.7476 25.6234 18.7476 25.9734V30.7426H12.2564V25.9734C12.2564 25.6275 11.98 25.3426 11.6354 25.3426C11.2908 25.3426 11.0143 25.6234 11.0143 25.9734V30.7426H7.43618C6.77504 30.7426 6.23812 30.1973 6.23812 29.5259V23.5155C6.23812 19.5316 9.4316 16.2884 13.3543 16.2884H13.4425L13.8672 17.6191L12.8575 23.0312C12.8174 23.2551 12.8935 23.4829 13.0658 23.6294L15.1013 25.3792C15.2175 25.4769 15.3578 25.5298 15.502 25.5298C15.6463 25.5298 15.7865 25.481 15.9027 25.3792L17.9382 23.6294C18.1065 23.4829 18.1866 23.2551 18.1465 23.0312L17.1368 17.6191L17.5615 16.2884H17.6497C21.5724 16.2884 24.7659 19.5316 24.7659 23.5155V29.5259ZM15.502 13.4155C18.8718 13.4155 21.6165 10.6321 21.6165 7.20977C21.6165 3.78748 18.8718 1 15.502 1C12.1322 1 9.38752 3.78748 9.38752 7.20977C9.38752 10.628 12.1322 13.4155 15.502 13.4155ZM15.502 2.25742C18.1906 2.25742 20.3784 4.47926 20.3784 7.20977C20.3784 9.94027 18.1906 12.158 15.502 12.158C12.8134 12.158 10.6256 9.9362 10.6256 7.20977C10.6256 4.47519 12.8134 2.25742 15.502 2.25742Z" fill="#083452" stroke="#083452"/>
<path d="M30.4053 9.42041L25 13.9848M29.9848 14.4053L25.4204 8.99997" stroke="#0090FF" stroke-width="2.5" stroke-miterlimit="10" stroke-linecap="round" stroke-linejoin="round"/>
</g>
<defs>
<clipPath id="clip0_251_1994">
<rect width="32" height="32" fill="white"/>
</clipPath>
</defs>
</svg>
