<svg width="32" height="32" viewBox="0 0 32 32" fill="none" xmlns="http://www.w3.org/2000/svg">
<g clip-path="url(#clip0_157_2008)">
<path d="M5 25.75V3.75C5 2.36925 6.11925 1.25 7.5 1.25H3.75C2.36925 1.25 1.25 2.36925 1.25 3.75V25.75C1.25 27.1306 2.36925 28.25 3.75 28.25H7.5C6.11925 28.25 5 27.1306 5 25.75Z" fill="#AEDCFF"/>
<path d="M8.75 30.75C10.1307 30.75 11.25 29.6307 11.25 28.25C11.25 26.8693 10.1307 25.75 8.75 25.75C7.36929 25.75 6.25 26.8693 6.25 28.25C6.25 29.6307 7.36929 30.75 8.75 30.75Z" stroke="#083452" stroke-width="2.5" stroke-miterlimit="10" stroke-linecap="round" stroke-linejoin="round"/>
<path d="M23.25 30.75C24.6307 30.75 25.75 29.6307 25.75 28.25C25.75 26.8693 24.6307 25.75 23.25 25.75C21.8693 25.75 20.75 26.8693 20.75 28.25C20.75 29.6307 21.8693 30.75 23.25 30.75Z" stroke="#083452" stroke-width="2.5" stroke-miterlimit="10" stroke-linecap="round" stroke-linejoin="round"/>
<path d="M30.75 18.25H23.25C21.8693 18.25 20.75 17.1307 20.75 15.75V3.75C20.75 2.36931 19.6307 1.25 18.25 1.25H3.75C2.36931 1.25 1.25 2.36931 1.25 3.75V25.75C1.25 27.1307 2.36931 28.25 3.75 28.25H6.25M11.2499 28.25H15.7501" stroke="#083452" stroke-width="2.5" stroke-miterlimit="10" stroke-linecap="round" stroke-linejoin="round"/>
<path d="M25.75 28.25H28.25C29.6307 28.25 30.75 27.1307 30.75 25.75V13.2502C30.75 10.477 28.4929 8.2335 25.7197 8.25031L23.25 8.2805V8.25C21.8693 8.25 20.75 9.36931 20.75 10.75" stroke="#083452" stroke-width="2.5" stroke-miterlimit="10" stroke-linecap="round" stroke-linejoin="round"/>
<path d="M9.24994 17.2501C9.70606 17.8573 10.4322 18.25 11.25 18.25M11.25 18.25C12.6307 18.25 13.75 17.1307 13.75 15.75C13.75 14.3693 12.6307 13.25 11.25 13.25C9.86931 13.25 8.75 12.1307 8.75 10.75C8.75 9.36931 9.86931 8.25 11.25 8.25M11.25 18.25V20.75M11.25 8.25C12.0678 8.25 12.7939 8.64269 13.2501 9.24988M11.25 8.25V5.75" stroke="#0090FF" stroke-width="2.5" stroke-miterlimit="10" stroke-linecap="round" stroke-linejoin="round"/>
<path d="M30.75 23.25H28.25" stroke="#083452" stroke-width="2.5" stroke-miterlimit="10" stroke-linecap="round" stroke-linejoin="round"/>
</g>
<defs>
<clipPath id="clip0_157_2008">
<rect width="32" height="32" fill="white"/>
</clipPath>
</defs>
</svg>
