<svg width="75" height="66" viewBox="0 0 75 66" fill="none" xmlns="http://www.w3.org/2000/svg">
<g clip-path="url(#clip0_129_1770)">
<path d="M54.4558 0.496187C57.9432 0.481984 60.1901 3.28176 60.2007 6.1652L60.2113 44.4321C60.1948 47.5316 57.7123 50.1128 54.4295 50.1224H18.2613C14.8942 50.1162 12.5151 47.3807 12.5151 44.4105L12.5164 6.1652C12.5139 2.97146 15.242 0.457592 18.2766 0.473956L54.4574 0.496187" fill="#888888"/>
<mask id="mask0_129_1770" style="mask-type:luminance" maskUnits="userSpaceOnUse" x="0" y="0" width="75" height="66">
<path d="M74.9999 0H0.000976562V65.9991H74.9999V0Z" fill="white"/>
</mask>
<g mask="url(#mask0_129_1770)">
<path d="M54.4563 0.496187C57.9437 0.481984 60.1906 3.28176 60.2012 6.1652L60.2118 44.4321C60.1953 47.5316 57.7128 50.1128 54.43 50.1224H18.2618C14.8947 50.1162 12.5156 47.3807 12.5156 44.4105L12.5169 6.1652C12.5144 2.97146 15.2425 0.457592 18.2771 0.473956L54.4578 0.496187H54.4563Z" stroke="white" stroke-width="0.787989"/>
</g>
<path d="M39.8376 18.4496L53.2371 12.2029C53.2908 12.1748 53.3208 12.256 53.3608 12.2689L44.0953 23.7129L57.6317 30.1763C57.6998 30.2161 57.7676 30.2705 57.6748 30.3372L42.8107 30.3514L46.21 44.9437L46.1147 45.0261L36.3929 33.2889H36.2692L26.6475 45.0425C26.5928 45.0835 26.5653 45.0835 26.5106 45.0434L29.8624 30.3989L15.0267 30.36C14.9717 30.319 14.9717 30.2788 14.9717 30.2378L28.4596 23.8228L28.5537 23.7286L19.2569 12.3011C19.2297 12.2341 19.2844 12.2056 19.3263 12.1519L32.7392 18.3995L36.2504 4.1864H36.3458L39.8332 18.4489" fill="white"/>
<path d="M0.000488281 65.9961V55.5693H2.81049L6.3683 63.3037L9.87518 55.5693H12.5646V65.9961H10.2489V60.0278L7.5758 65.9961H5.10768L2.40236 60.0587V65.9961H0.000488281Z" fill="#888888"/>
<path d="M16.3425 65.9961H13.6182L18.2991 55.5693H21.6544L26.3682 65.9961H23.6785L22.751 63.9104L17.2416 63.9268L16.3425 65.9961ZM21.8829 61.96L19.9682 57.6531L18.0966 61.96H21.8829Z" fill="#888888"/>
<path d="M27.4741 65.9961V55.5693H37.5563V57.6534H29.9091V59.7407H36.4657V61.8093H29.9091V63.912H37.5563V65.9961H27.4741Z" fill="#888888"/>
<mask id="mask1_129_1770" style="mask-type:luminance" maskUnits="userSpaceOnUse" x="0" y="0" width="75" height="66">
<path d="M74.9999 0H0.000976562V65.9991H74.9999V0Z" fill="white"/>
</mask>
<g mask="url(#mask1_129_1770)">
<path d="M39.5127 65.9961V55.5694H48.1439C48.1439 55.5694 48.6999 55.5073 49.2871 56.0717C49.8133 56.5766 49.7261 57.3176 49.7261 57.3176V60.8211C49.7261 60.8211 49.8299 61.4645 49.2083 62.015C48.6083 62.5458 47.7355 62.4306 47.7355 62.4306L49.7443 65.9961H47.1058L45.1127 62.4306H41.9821V65.9961H39.5127ZM41.9824 60.3459H47.2761V57.6541H41.9824V60.3459Z" fill="#888888"/>
</g>
<mask id="mask2_129_1770" style="mask-type:luminance" maskUnits="userSpaceOnUse" x="0" y="0" width="75" height="66">
<path d="M74.9999 0H0.000976562V65.9991H74.9999V0Z" fill="white"/>
</mask>
<g mask="url(#mask2_129_1770)">
<path d="M54.1653 65.9961H53.3294C53.3294 65.9961 52.5956 65.9822 52.1791 65.5481C51.6969 65.0433 51.7134 64.4656 51.7134 64.4656V63.1033H54.1653V63.9123H59.3744V61.8087H53.3963C53.3963 61.8087 52.6594 61.8825 52.2053 61.4215C51.7006 60.9112 51.7553 60.2958 51.7553 60.2958V57.1678C51.7553 57.1678 51.7447 56.642 52.1031 56.1748C52.6185 55.503 53.4138 55.57 53.4138 55.57L60.2434 55.5749C60.2434 55.5749 60.8006 55.536 61.3459 56.0581C61.9438 56.6278 61.8056 57.2348 61.8056 57.2348V58.4794H59.3719V57.6547H54.1628V59.7407H60.1206C60.1206 59.7407 60.8197 59.69 61.3116 60.2452C61.8056 60.8006 61.8056 61.4218 61.8056 61.4218V64.3652C61.8056 64.3652 61.8856 64.9429 61.4175 65.4675C60.8866 66.0653 60.1722 65.9967 60.1722 65.9967H54.1631" fill="#888888"/>
</g>
<path d="M64.1401 65.9931V55.5632H66.6401V59.7345L71.4058 55.5632H74.7964L69.112 60.4076L74.9995 65.9931H71.4933L66.6401 61.2475V65.9931H64.1401Z" fill="#888888"/>
</g>
<defs>
<clipPath id="clip0_129_1770">
<rect width="75" height="66" fill="white"/>
</clipPath>
</defs>
</svg>
