<svg width="33" height="32" viewBox="0 0 33 32" fill="none" xmlns="http://www.w3.org/2000/svg">
<g clip-path="url(#clip0_157_2023)">
<path d="M1.90527 1.25L3.90884 2.00181C4.67193 2.38335 5.3247 2.9538 5.80504 3.6589C6.28537 4.36399 6.57729 5.18027 6.65302 6.03006L7.97015 20.808" stroke="#0090FF" stroke-width="2.5" stroke-miterlimit="10" stroke-linecap="round" stroke-linejoin="round"/>
<path d="M8.90527 30.75C10.286 30.75 11.4053 29.6307 11.4053 28.25C11.4053 26.8693 10.286 25.75 8.90527 25.75C7.52456 25.75 6.40527 26.8693 6.40527 28.25C6.40527 29.6307 7.52456 30.75 8.90527 30.75Z" stroke="#083452" stroke-width="2.5" stroke-miterlimit="10" stroke-linecap="round" stroke-linejoin="round"/>
<path d="M18.3661 25.1235L17.4945 15.1615C17.3742 13.7861 18.3916 12.5735 19.7671 12.4532L27.2382 11.7995C26.8447 11.6185 26.4107 11.5434 25.9791 11.5816L16.0171 12.4531C14.6417 12.5735 13.6242 13.786 13.7445 15.1615L14.6161 25.1234C14.7364 26.4989 15.949 27.5164 17.3245 27.396L19.8154 27.178C19.0256 26.8154 18.4473 26.0512 18.3661 25.1235Z" fill="#AEDCFF"/>
<path d="M17.3244 27.3961C15.949 27.5164 14.7364 26.4989 14.6161 25.1234L13.7445 15.1615C13.6242 13.7861 14.6416 12.5734 16.0171 12.4531L25.9791 11.5816C27.3545 11.4612 28.5671 12.4787 28.6874 13.8542L29.559 23.8161C29.6793 25.1916 28.6619 26.4042 27.2864 26.5245M20.9981 12.0174L21.4339 16.9983M11.3833 27.9159L31.4054 26.1641" stroke="#083452" stroke-width="2.5" stroke-miterlimit="10" stroke-linecap="round" stroke-linejoin="round"/>
</g>
<defs>
<clipPath id="clip0_157_2023">
<rect width="32" height="32" fill="white" transform="translate(0.655273)"/>
</clipPath>
</defs>
</svg>
