<svg width="65" height="65" viewBox="0 0 65 65" fill="none" xmlns="http://www.w3.org/2000/svg">
<rect width="65" height="65" rx="10" fill="url(#paint0_linear_246_2393)"/>
<path d="M30.1374 20.029C30.0684 20.029 29.9941 20.0025 29.941 19.9441C29.8454 19.8379 29.856 19.6733 29.9622 19.5724L31.6878 18.0221L29.9622 16.4718C29.856 16.3763 29.8454 16.2117 29.941 16.1002C30.0366 15.994 30.2012 15.9834 30.3126 16.0789L32.2558 17.8204C32.3089 17.8682 32.3408 17.9425 32.3408 18.0168C32.3408 18.0912 32.3089 18.1602 32.2558 18.2133L30.3126 19.96C30.2596 20.0078 30.2012 20.029 30.1374 20.029Z" fill="#0091FF" stroke="#0091FF" stroke-width="1.5"/>
<path d="M27.6367 47.6426C27.6049 47.6426 27.573 47.6373 27.5411 47.6267C17.788 43.8146 15.6112 36.148 16.827 30.2388C18.1437 23.8305 23.8193 17.4965 32.0859 17.762C32.2292 17.7673 32.3407 17.8894 32.3407 18.0327C32.3354 18.1761 32.2133 18.2929 32.07 18.2876C24.0636 18.0221 18.6162 24.149 17.342 30.345C16.1686 36.0471 18.2817 43.4483 27.7323 47.1382C27.865 47.1913 27.934 47.34 27.8809 47.478C27.8385 47.5789 27.7376 47.6426 27.6367 47.6426Z" fill="#0091FF" stroke="#0091FF" stroke-width="1.5"/>
<path d="M33.5144 49.9999C33.4507 49.9999 33.387 49.9787 33.3392 49.9309L31.396 48.1842C31.3429 48.1364 31.311 48.0621 31.311 47.9877C31.311 47.9134 31.3429 47.8444 31.396 47.7913L33.3392 46.0498C33.4454 45.9543 33.61 45.9596 33.7108 46.0711C33.8064 46.1773 33.7958 46.3418 33.6896 46.4427L31.9641 47.993L33.6896 49.5433C33.7958 49.6389 33.8064 49.8035 33.7108 49.915C33.6577 49.9734 33.5887 49.9999 33.5144 49.9999Z" fill="#0091FF" stroke="#0091FF" stroke-width="1.5"/>
<path d="M32.0862 48.2639C31.911 48.2639 31.7411 48.2585 31.5659 48.2532C31.4225 48.2479 31.311 48.1258 31.311 47.9825C31.3163 47.8391 31.4544 47.7435 31.5818 47.7276C39.5882 47.9931 45.0355 41.8662 46.3098 35.6702C47.4831 29.9734 45.37 22.5669 35.9195 18.877C35.7868 18.8239 35.7177 18.6752 35.7708 18.5372C35.8239 18.4044 35.9779 18.3354 36.1106 18.3885C45.8638 22.1953 48.0353 29.8619 46.8248 35.7711C45.5346 42.052 40.0767 48.2639 32.0862 48.2639Z" fill="#0091FF" stroke="#0091FF" stroke-width="1.5"/>
<path d="M28.2594 32.1931C27.5577 32.1931 26.8495 31.9252 26.3136 31.3893C25.7905 30.8661 25.5098 30.1771 25.5098 29.4434C25.5098 28.7098 25.7969 28.0144 26.3136 27.4976C26.8304 26.9745 27.5258 26.6938 28.2594 26.6938C28.9931 26.6938 29.6885 26.9809 30.2052 27.4976C30.722 28.0144 31.0091 28.7098 31.0091 29.4434C31.0091 30.1771 30.722 30.8725 30.2052 31.3893C29.6693 31.9252 28.9612 32.1931 28.2594 32.1931ZM28.2594 27.319C27.6916 27.319 27.1557 27.5423 26.7602 27.9442C26.3583 28.3461 26.135 28.882 26.135 29.4434C26.135 30.0112 26.3583 30.5471 26.7602 30.9427C27.5896 31.772 28.9357 31.772 29.765 30.9427C30.167 30.5408 30.3902 30.0049 30.3902 29.4434C30.3902 28.8756 30.167 28.3398 29.765 27.9442C29.3567 27.5359 28.8272 27.319 28.2594 27.319Z" fill="#083452" stroke="#083452" stroke-width="1.5"/>
<path d="M35.3917 39.332C34.6581 39.332 33.9627 39.0449 33.4459 38.5281C32.9292 38.0114 32.6421 37.316 32.6421 36.5823C32.6421 35.8486 32.9292 35.1532 33.4459 34.6365C33.9627 34.1133 34.6581 33.8326 35.3917 33.8326C36.1254 33.8326 36.8208 34.1197 37.3376 34.6365C37.8543 35.1532 38.1414 35.8486 38.1414 36.5823C38.1414 37.316 37.8543 38.0114 37.3376 38.5281C36.8208 39.0449 36.1318 39.332 35.3917 39.332ZM35.3917 34.4515C34.824 34.4515 34.2881 34.6748 33.8861 35.0767C33.4842 35.4786 33.2609 36.0145 33.2609 36.5759C33.2609 37.1437 33.4842 37.6796 33.8861 38.0752C34.69 38.879 36.0871 38.879 36.891 38.0752C37.2929 37.6732 37.5162 37.1373 37.5162 36.5759C37.5162 36.0081 37.2929 35.4722 36.891 35.0767C36.4954 34.6748 35.9595 34.4515 35.3917 34.4515Z" fill="#083452" stroke="#083452" stroke-width="1.5"/>
<path d="M25.8992 39.2491C25.8162 39.2491 25.7397 39.2172 25.6759 39.1597C25.5547 39.0385 25.5547 38.8407 25.6759 38.7132L37.4911 26.8979C37.6123 26.7767 37.8101 26.7767 37.9377 26.8979C38.0589 27.0191 38.0589 27.2169 37.9377 27.3445L26.1225 39.1597C26.0587 39.2172 25.9821 39.2491 25.8992 39.2491Z" fill="#083452" stroke="#083452" stroke-width="1.5"/>
<defs>
<linearGradient id="paint0_linear_246_2393" x1="-130.5" y1="-160" x2="68.5" y2="77" gradientUnits="userSpaceOnUse">
<stop stop-color="#4DAFF6"/>
<stop offset="1" stop-color="white"/>
</linearGradient>
</defs>
</svg>
